<svg width="76" height="76" xmlns="http://www.w3.org/2000/svg" xmlns:xlink="http://www.w3.org/1999/xlink" xml:space="preserve" overflow="hidden"><defs><clipPath id="clip0"><rect x="220" y="404" width="76" height="76"/></clipPath></defs><g clip-path="url(#clip0)" transform="translate(-220 -404)"><path d="M243.806 422.707C242.189 422.306 240.573 422.022 238.962 421.848 241.275 420.235 242.845 417.121 242.845 413.552 242.845 408.774 239.975 405.806 235.356 405.806 230.736 405.806 227.866 408.774 227.866 413.552 227.866 417.113 229.429 420.22 231.733 421.837 230.108 422.01 228.494 422.298 226.895 422.709 222.449 423.853 220 426.298 220 429.595L220 448.463C220 451.891 222.601 454.745 226.003 455.292L226.003 477.67C226.003 477.985 226.128 478.287 226.351 478.509 226.574 478.732 226.876 478.857 227.191 478.857L243.521 478.857C244.176 478.857 244.708 478.325 244.708 477.67L244.708 455.292C248.11 454.745 250.711 451.891 250.711 448.463L250.711 429.595C250.711 426.306 248.195 423.796 243.806 422.707ZM230.241 413.552C230.241 408.879 233.445 408.181 235.356 408.181 237.266 408.181 240.47 408.879 240.47 413.552 240.47 417.464 238.176 420.647 235.356 420.647 232.535 420.647 230.241 417.464 230.241 413.552ZM248.336 448.463C248.336 450.584 246.791 452.37 244.708 452.871L244.708 435.198C244.708 434.543 244.176 434.011 243.521 434.011 242.865 434.011 242.333 434.543 242.333 435.198L242.333 454.199 242.333 476.482 236.768 476.482 236.768 458.67C236.768 458.014 236.236 457.482 235.58 457.482 234.924 457.482 234.393 458.014 234.393 458.67L234.393 476.482 228.378 476.482 228.378 454.2C228.378 454.2 228.378 454.199 228.378 454.199L228.378 435.198C228.378 434.543 227.846 434.011 227.191 434.011 226.535 434.011 226.003 434.543 226.003 435.198L226.003 452.871C223.92 452.37 222.375 450.584 222.375 448.463L222.375 429.595C222.375 426.892 225.155 425.609 227.487 425.01 232.614 423.691 237.913 423.692 243.235 425.012 245.14 425.485 248.336 426.709 248.336 429.595ZM295.013 432.055 281.588 408.802C280.265 406.511 277.896 405.143 275.25 405.143 272.605 405.143 270.235 406.511 268.913 408.802L255.488 432.055C254.165 434.346 254.165 437.082 255.488 439.373 256.81 441.664 259.18 443.032 261.825 443.032L288.675 443.032C291.321 443.032 293.69 441.664 295.013 439.373 296.336 437.082 296.336 434.346 295.013 432.055ZM292.956 438.185C292.063 439.733 290.462 440.657 288.675 440.657L261.825 440.657C260.038 440.657 258.438 439.733 257.544 438.185 256.651 436.638 256.651 434.79 257.544 433.242L270.969 409.989C271.863 408.442 273.463 407.518 275.25 407.518 277.037 407.518 278.638 408.442 279.531 409.989L292.956 433.242C293.85 434.79 293.85 436.638 292.956 438.185ZM275.25 430.803C276.761 430.803 277.986 429.621 278.041 428.112L278.447 416.877C278.475 416.102 278.205 415.396 277.666 414.838 277.127 414.279 276.432 413.984 275.656 413.984L274.845 413.984C274.069 413.984 273.374 414.279 272.835 414.838 272.296 415.396 272.026 416.102 272.054 416.877L272.46 428.112C272.514 429.621 273.74 430.803 275.25 430.803ZM274.544 416.487C274.634 416.393 274.715 416.359 274.845 416.359L275.656 416.359C275.785 416.359 275.867 416.393 275.956 416.487 276.046 416.58 276.078 416.662 276.073 416.791L275.667 428.026C275.659 428.252 275.476 428.428 275.25 428.428 275.024 428.428 274.841 428.252 274.833 428.026L274.427 416.791C274.423 416.662 274.454 416.58 274.544 416.487ZM275.25 432.099C273.462 432.099 272.007 433.554 272.007 435.342 272.007 437.131 273.462 438.586 275.25 438.586 277.039 438.586 278.494 437.131 278.494 435.342 278.494 433.554 277.039 432.099 275.25 432.099ZM275.25 436.211C274.771 436.211 274.382 435.821 274.382 435.342 274.382 434.863 274.771 434.474 275.25 434.474 275.729 434.474 276.119 434.863 276.119 435.342 276.119 435.821 275.729 436.211 275.25 436.211Z" stroke="#ED770C" stroke-width="0.148409" fill="#ED770C"/></g></svg>